<svg xmlns="http://www.w3.org/2000/svg" width="305.345" height="297.876" viewBox="0 0 305.345 297.876">
  <defs>
    <style>
      .cls-1 {
        fill: #0a64ff;
        stroke: #000;
        stroke-linecap: square;
        stroke-width: 20px;
        opacity: 0.51;
      }
    </style>
  </defs>
  <path id="Crown" class="cls-1" d="M-152.451,526.4a30,30,0,0,1,29.471-30.519L23,493.332a30,30,0,0,1,1.047,59.991l-145.977,2.548c-.178,0-.356,0-.534,0A30,30,0,0,1-152.451,526.4Zm71.767-51.628a30.188,30.188,0,0,1-4.336,3.037A30,30,0,0,1-126,466.828l-73-126.439a30,30,0,0,1,10.981-40.982,30,30,0,0,1,40.981,10.981l58,100.459V308a30,30,0,0,1,30-30,30,30,0,0,1,30,30V423.643l53.952-115.7A30,30,0,0,1,79.293,333.3L17.59,465.62A30,30,0,0,1-22.278,480.13a29.862,29.862,0,0,1-11.678-9.666A29.971,29.971,0,0,1-59.038,484,29.917,29.917,0,0,1-80.684,474.772Z" transform="translate(213.119 -268)"/>
</svg>
